<svg xmlns="http://www.w3.org/2000/svg" width="1000" height="1000">
    <path d="M483.012592525143 94.859955958813c76.322846631065-3.254970328482 153.535528660296 15.624808736914 219.528775513155 54.166070369385 69.07450529208 40.320682123488 126.235478766685 101.192431906902 161.022410965375 173.283616866688 4.83940297838 10.15613819426 10.785405758532 20.442435152808 10.893787960334 32.030820364875.58621504993 19.053741259974-13.584820412004 37.26094994144-32.269361330967 41.2755969038-19.574626622444 5.143023326616-41.080358757364-6.770758796173-48.285146971378-25.455299715136-31.900661600586-72.959243795465-91.94765536798-133.114870069975-164.863596343786-165.080611052706-76.322846631066-33.853793980866-165.948669888387-36.240955778984-243.942554808667-6.423585322965-80.359019850595 29.90422640065-146.894928628412 93.944090567915-181.139198902144 172.39378146852-9.179697156778 22.829596950927-40.168746796712 31.531711564892-60.329087858456 17.90358833323-17.2310179493-10.503561972784-23.8280648562-33.983952745155-15.407794027994-52.16963516945 31.640093766694-73.176258504386 86.24019355392-135.914284723447 153.253184263917-178.925748993288 59.873532183446-38.628117577102 130.380785103964-60.2857850388 201.5385815406-62.998594052955zM469.92675244634 283.573036826875c91.079846837616-14.605064879774 188.322460858986 40.602776214553 219.5938548953 127.819661111268 4.991338305156 18.0552733547-4.123029164162 38.519485069985-20.703002986702 47.13474373932-18.858252808225 10.98089421028-45.528784832248 3.255220633797-55.728476151482-15.971982210123-17.16568826184-44.400658773307-61.435937965542-76.431479138183-109.20019957445-77.581632064926-48.284896666062-2.430464617776-96.50471394998 26.75763827397-115.450073008152 71.461917395513-7.89913516043 21.419126495605-34.504838107625 33.39798800054-55.511211137246 23.697655786606-19.943326352824-7.964464848-30.490191145266-32.356467580914-22.89467633307-52.40817613554 26.453517315104-65.73292932428 89.603796389518-114.885884826023 159.8937842958-124.152187622117zM437.071210522975 525.60591922266c1.106850107086-36.3275614183 38.82310541822-65.168490836837 74.217778924-57.24757911392 27.27852363644 4.904482360525 49.1099029874 29.774067636362 50.324884990973 57.46459382284l.39072659818 128.42740241837 319.462672291512.368950035695c55.294196428326 2.9080471606 105.423843272865 46.006367375062 115.51490208498 100.628243724774 8.506876467533 40.08189085208-4.96956174267 83.63601704688-33.983952745154 112.433393340444-24.544188365115 24.782729331205-59.721346551354 38.714973521734-94.616911257162 37.087238052177-240.86104606413-.086605639315-481.74361838543 0-722.604414144245-.043302819658-16.709882281513-.151935326775-33.745161473748 1.323864816006-49.999237774935-3.493761599888-36.9791061557-8.39849426573-69.096782465197-34.98242065044-84.808196841426-69.42217937592-16.75318510117-35.503055707593-15.060620554785-78.992102520248 4.470452942686-113.062911210033 20.551067659926-37.542793727187 61.587622987002-62.4341555655 104.25216408895-64.148496674382l317.0534836256-.325396910722.325647216038-128.666193689777M116.21984433863 717.747788897572c-23.133467604478 2.821191215958-43.814443723377 19.769864768877-51.019482242706 41.970194155532-7.50815825693 21.37557337063-1.84449987316 46.440146487585 13.7152294816 62.846408420863 20.485988277782 22.67766162415 58.289349838862 26.193199786526 82.551193807597 7.530185124734 20.96332051528-14.713447081576 30.164543929228-43.055017394814 23.133467604477-67.468796690324-7.703897013997-29.122773204287-38.54126163247-49.500379280267-68.380408650977-44.877991010805z"/>
</svg>