<!-- Luci icon (source: https://github.com/openwrt/luci/issues/2251#issuecomment-544469589) -->
<svg width="256px" height="256px" viewBox="0 0 100 100" xmlns="http://www.w3.org/2000/svg">
  <defs>
    <mask id="a">
      <rect width="105" height="105" x="0" y="-75" transform="rotate(45,50,-25)" fill="#fff"/>
    </mask>
    <mask id="b">
      <rect width="100" height="100" fill="#fff"/>
      <rect width="112" height="112" x="0" y="-75" transform="rotate(45,50,-25)"/>
      <circle r="20" cx="50" cy="50"/>
    </mask>
  </defs>
  <path d="M 50,50 m 0,-50 a 50,50 0,1,0,1,0 Z m 0 13 a 37,37 0,1,1,-1,0 Z" mask="url(#a)"/>
  <path d="M 50,50 m 0,-32 a 32,32 0,1,0,1,0 Z m 0 12 a 20,20 0,1,1,-1,0 Z" mask="url(#a)"/>
  <circle r="50" cx="50" cy="50" fill="#a7a8ab" mask="url(#b)"/>
  <circle r="12" cx="50" cy="50"/>
</svg>
