<svg xmlns="http://www.w3.org/2000/svg" width="1000" height="1000">
    <path d="M407.925463327776 288.248677203674c82.228876348353-38.825842553185 186.43623194952-19.749885166818 250.355625046495 45.3410553444 28.08862564197 26.796182938803 48.373524737925 61.394246828797 60.00790720944 98.565755335032 18.147823327314-35.394583064865 49.664238099895-63.988051146584 87.451176170424-75.91558736438 39.803838075516-13.377731767855 85.071610515687-8.087891439408 120.923333886774 13.908600156055 51.619553371906 30.39086152092 81.482589132766 94.338084968126 70.61416677765 154.016702052763-9.457105557733 62.354185097464-61.742116183194 115.006972407948-123.443603549494 123.911742723773-62.286542329577 10.94723824758-127.517177032848-24.243206320393-155.464243323322-81.246255392202-23.833719333738 78.754574471003-91.100926942808 142.436363724108-171.131570461297 158.734521404775-73.759692548786 16.8088829599-155.121250574382-8.046955443745-207.68852455932-63.028112877916-27.241407891783-26.8983063354-46.760346871342-61.25129573283-57.890932013367-97.993842654883-14.840637632114 29.798372546656-38.59352700382 55.389542724236-68.536965054956 69.808868159515-48.534756990233 25.080553194642-110.821299319812 19.218908482333-153.93189541877-14.58263623279-49.30071710663-36.51794042733-72.025483575032-105.46910201105-52.99066902415-164.432855319572 16.655248896142-57.309527557857 69.968810096665-101.282151047238 128.8476638682-105.755004202982 60.270069996348-6.433449096173 120.802302779605 29.85977654015 146.73289673685 84.922697669362 18.510488977065-64.192406236044 65.593300353022-119.336982764012 126.145633708846-146.25564880095m78.740357828277 69.68638506138c-67.065346539868 5.187608635573-124.573084659157 65.601557494156-126.065231418572 133.919510700518-3.084796381673 46.117106521438 18.026792220145 93.03084051403 54.6645762802 120.623542627704 35.932125661362 28.144146796 85.71696719667 36.763014919883 128.787362150492 22.037427591127 50.812964438614-16.298374273237 89.709283046237-64.417012730766 95.294676189818-118.152329704337 4.194176918767-35.762248951837-5.283029211535-73.03588085466-26.696981745398-101.874423428933-28.209229077382-39.6427214296-78.11510171986-61.51672992693-125.98440145654-56.55372778608m-340.5490325214 79.918651236562c-28.330260184552.571912680148-54.261281813553 23.303736049557-58.01153544878 51.917672129108-6.75507539838 35.231163971067 23.269192614786 72.218893681958 58.97935663438 70.85046182694 32.565065920213 1.940236238882 62.26644175701-27.69482551026 61.399123434254-60.597727653926 1.613177866584-33.862840412334-29.136849117843-63.906395747828-62.366944619853-62.17040630212m701.806359178.040827699378c-33.693691686362.9804062665-61.82251847347 34.12838290272-57.14464479778 68.052519012262 2.25853454757 29.512578651008 28.633051788354 54.776910640994 57.9914348762 54.63395954503 27.806362282493 2.124015034226 54.825808532506-18.749227495057 60.976156066796-46.096855116177 11.291817394332-38.294757572414-22.644364178126-79.918651236562-61.822946145226-76.589623441114z"/>
</svg>