<svg xmlns="http://www.w3.org/2000/svg" width="500" height="500" viewBox="0 0 501 501" stroke="#000" stroke-linecap="round" stroke-linejoin="round" fill="#fff" fill-rule="evenodd">
  <path d="M213.87 166c32.892-15.53 74.575-7.9 100.142 18.136 11.236 10.718 19.35 24.558 24.004 39.426 7.259-14.158 19.865-25.595 34.98-30.366 15.922-5.351 34.029-3.235 48.37 5.563 20.647 12.157 32.592 37.736 28.245 61.607-3.783 24.942-24.697 46.003-49.377 49.565-24.915 4.379-51.007-9.697-62.186-32.499-9.534 31.502-36.44 56.975-68.453 63.494-29.504 6.724-62.048-3.219-83.075-25.211-10.897-10.76-18.704-24.5-23.157-39.198-5.936 11.92-15.437 22.156-27.414 27.924-19.414 10.032-44.329 7.687-61.573-5.833C54.656 284 45.566 256.42 53.18 232.835c6.662-22.924 27.987-40.513 51.539-42.302 24.108-2.573 48.32 11.944 58.693 33.969 7.404-25.677 26.237-47.735 50.458-58.502m31.496 27.874c-26.826 2.075-49.83 26.24-50.426 53.568-1.234 18.447 7.21 37.212 21.866 48.25 14.373 11.257 34.287 14.705 51.515 8.815 20.325-6.52 35.884-25.767 38.118-47.261 1.678-14.305-2.113-29.215-10.679-40.75-11.283-15.857-31.246-24.607-50.394-22.622m-136.22 31.968c-11.331.228-21.704 9.321-23.204 20.767-2.702 14.092 9.308 28.887 23.592 28.34 13.026.776 24.906-11.078 24.56-24.24.645-13.544-11.655-25.562-24.947-24.867m280.722.016c-13.477.392-24.73 13.651-22.858 27.22.904 11.805 11.454 21.91 23.197 21.854 11.122.85 21.93-7.5 24.39-18.44 4.517-15.317-9.057-31.967-24.729-30.635z" fill-rule="nonzero" stroke-linejoin="miter" stroke-linecap="butt" fill="#000" stroke-width=".017"/>
</svg>
