<svg xmlns="http://www.w3.org/2000/svg" width="1000" height="1000">
    <path d="M166.24456064232 30.51627604646C172.124068316855 15.320585715923 186.2042163775 3.351018357537 202.24420032966.396328055806c11.095308796765-1.477391156402 22.31084539783-.633220216215 33.43621114567-.783934356604h530.5530322296c12.452165445286.24113035648 25.296298068875-1.266317750998 37.446667189084 2.351619047664 10.3714883423 3.165794377494 18.05993374582 11.215935315723 25.868606953626 18.30124812445 3.346749491108 9.617917640363 6.06046278815 19.597592156163 6.542600819677 29.818489039517 1.085730681682 25.084979300604 2.92472536173 50.169866590134 3.045566573194 75.315205155754.512194982602 23.54732089026-22.793596836522 43.054435489618-45.61725062412 42.481666549493-77.66716157736.633036194065-155.364380105794-.241222367555-233.060985227064.422024129377.422024129376 24.994501743797 2.803884150266 49.928736233654 2.321132711574 74.923237977452 3.346749491108 53.185008167955 2.019949793662 106.550818097733 4.763720041778 159.795940167838-.66309314514 25.356411971026 2.32174611874 50.531868828437 2.442587330204 75.857917144805 1.62798261536 30.994390574424-.120841211465 62.079258705655 2.200904907275 93.043438977213 0 12.241000028808 2.2910757605 25.44673617604-3.708659718335 36.753057037497-8.44232280904 18.361576719105-28.160296121292 28.009551310543-46.733038256877 32.893959211994-20.803090586772 4.40180981455-43.385675358605 3.437073696123-62.742351850795-5.90941127382-15.648016773855-6.7235559333-28.793332315358-20.140304145212-33.496938454986-36.66273283248-1.869051631123-31.14498203338 3.045566573194-62.199793213538 2.080677102975-93.375138901576 2.200904907276-32.200349060406 1.718153468584-64.491175677618 2.472030874114-96.751945343756 3.286635588958-46.129752310304-1.47708445282-92.651471799 4.40180981455-138.570212044525-.602979243-32.954226465937 2.351803069814-65.878089277215 2.080677102976-98.7720484892l-2.683656345967-3.04510651782c-76.0686225059-1.145844583833-152.258086223286.241222367554-228.387436038512-.633189545857-20.562634978172.633189545857-39.406503080596-15.07509448194-44.893430169665-34.401407319473-2.1708479562-21.497007441942.150284755375-43.144913046424 2.44197392304-64.551534942634 1.41697055067-12.753471044633-.844048258754-25.9894481651 3.225908279644-38.381193004646zm-60.511389992445 242.859796640327c3.105680475344-21.58748499875 22.703425983298-42.30071143588 45.49702281982-40.702785771594l256.848915077717.120687859673c-.301182917913 15.617806471.120841211464 31.325937146994-2.170234549036 46.82320911-2.1708479562 23.939288068564-.69376350338 47.999110645-2.231575265514 71.998665967514-21.6477522527 15.648016773855-40.732689370878 34.461674573412-61.29532434905 51.43618434113-11.99947095767 10.19083993228-24.391522500806 19.929292080524-35.727900313335 30.903913017617 31.868955839627.934679167353 63.737298272088-.482291383318 95.606254111715.783934356605-3.889001424784 28.130085818426-1.115787632758 56.68234911802-3.828887522634 84.963333098984-.0907842604 46.190019564245-3.226521686808 92.349828825624-2.351803069815 138.570212044526-31.386204400935 1.326646345654-62.80307916.512501686184-94.15922660997.54271198905l.96488947022 7.597814495 131.274040522902 138.449677536644c17.426897551753 20.683016134262 38.260658496763 38.200237891032 55.566714837053 59.003788533176 2.592872085577 2.201058259066 4.3416959124 6.72370928508 8.381595499723 6.331742106778 8.472379760114 1.326492993864 11.789072300147-8.200947089692 16.974816471302-12.934610180396L626.909660958458 740.76426888084c20.833760945-24.451789754748 44.953544071814-45.858472991675 65.636406854285-70.46100755717 2.954782312806-3.19585132857 4.160740798787-7.447069684163 5.728609511997-11.366588115396-31.386204400935.030210302866-62.77240880187-.12053450788-94.158613202805.06026725394l-6.5125438686-224.799770883432 94.67142159257-.301489621496c-22.6126417229-20.472004069574-45.888376590958-40.25039798756-69.194781817247-59.93862105232-8.562550613338-7.989781673212-17.426284144588-15.708284027796-27.195406651073-22.25073149568-3.286022181793-16.853975259837-1.41697055067-34.099917697977-2.622929036653-51.134848071427-1.447027501745-22.582431420043-.81399130768-45.225283445818-1.41697055067-67.80771486586l259.020376441082.030210302867c17.698023518592-.301489621496 31.597216465624 13.326270655115 39.8279138028 27.738118640123 6.361645706062 28.431728791712 6.361645706062 57.70750584218 10.432215651625 86.47078120646l47.607143466706 475.07648824577c2.1708479562 19.08509046998 4.3416959124 38.200237891032 5.21580112223 57.406016220684.934832519143 15.044884179073-5.004789057542 31.386357752726-17.999206436505 39.888641112123-9.226257165644 5.818933717012-20.019769637332 9.4972297807-31.024907580873 9.286371067792l-810.82919374507-.030210302865c-18.089990696894.12053450788-37.657065846608-9.135626257045-44.742532007126-26.592427408083-8.02029867966-16.522275335475-2.92472536173-35.366143437898-1.326799697446-52.732773735712l22.40162965822-225.49322768323c4.793776992853-27.105082446057 3.105680475344-54.903621691912 8.381595499724-81.948283532238l26.924280684235-268.487395918905zM56.43793066566 930.408908391062c11.24559355214 7.53754724097 23.06472280336 16.039983952158 37.38593987977 15.165725390537l814.326841398716-.030210302866c14.471501831784 1.236015437057 26.290631083004-7.447223035954 37.5368380423-15.165725390537-3.2265216868 19.62780245903-9.70839519717 40.1902840854-25.41713928034 53.456440838376-12.903633118573 12.120312169134-31.416261352 14.984616925132-48.421134774387 15.46706166024l-741.664468878896-.030210302866c-18.240275452268 0-37.5368380423-4.793930344644-50.8931656485-17.939399237937-13.778965142733-13.356480957982-19.50757465473-32.562105935842-22.853710738672-50.923682654948z"/>
</svg>