<svg xmlns="http://www.w3.org/2000/svg" width="500" height="500" viewBox="0 0 501 501" stroke="#000" stroke-linecap="round" stroke-width=".018">
  <path d="M117.344 62.893c2.35-6.072 7.976-10.854 14.385-12.035 4.433-.59 8.914-.253 13.36-.313h211.987c4.975.096 10.107-.506 14.962.94 4.144 1.265 7.216 4.481 10.336 7.312 1.337 3.843 2.422 7.83 2.614 11.914.434 10.023 1.169 20.046 1.217 30.093.205 9.409-9.107 17.203-18.227 16.974-31.032.253-62.077-.096-93.121.169.168 9.987 1.12 19.95.927 29.936 1.337 21.25.807 42.574 1.903 63.848-.265 10.132.928 20.19.976 30.31.65 12.384-.048 24.804.88 37.176 0 4.9.915 10.168-1.482 14.685-3.373 7.337-11.252 11.192-18.673 13.143-8.312 1.76-17.335 1.374-25.069-2.36-6.252-2.686-11.505-8.047-13.384-14.65-.747-12.444 1.217-24.852.831-37.3.88-12.866.687-25.768.988-38.658 1.313-18.431-.59-37.02 1.759-55.367-.24-13.167.94-26.322.831-39.465l-1.072-1.217c-30.394-.458-60.836.097-91.255-.253-8.216.253-15.745-6.023-17.937-13.745-.868-8.59.06-17.24.975-25.793.567-5.095-.337-10.384 1.3-15.335zM93.167 159.93c1.24-8.626 9.07-16.902 18.178-16.263l102.627.048c-.12 6.24.048 12.517-.867 18.709-.868 9.565-.277 19.178-.892 28.767-8.65 6.253-16.275 13.77-24.491 20.552-4.795 4.072-9.746 7.963-14.275 12.348 12.733.374 25.467-.192 38.2.313-1.554 11.24-.446 22.648-1.53 33.948-.036 18.456-1.29 36.9-.94 55.367-12.54.53-25.093.205-37.622.217l.386 3.036 52.452 55.32c6.963 8.264 15.287 15.263 22.202 23.576 1.036.88 1.735 2.686 3.35 2.53 3.385.53 4.71-3.277 6.782-5.168l44.682-46.55c8.324-9.77 17.962-18.324 26.226-28.154 1.18-1.277 1.662-2.975 2.29-4.541-12.541.012-25.082-.049-37.622.024l-2.602-89.82 37.827-.12c-9.035-8.18-18.336-16.083-27.648-23.95-3.421-3.193-6.963-6.277-10.866-8.891-1.313-6.734-.566-13.625-1.048-20.432-.578-9.023-.325-18.07-.566-27.093l103.494.012c7.071-.12 12.625 5.325 15.913 11.083 2.542 11.36 2.542 23.058 4.169 34.55l19.022 189.822c.867 7.625 1.735 15.263 2.084 22.937.373 6.011-2 12.54-7.192 15.938-3.686 2.325-8 3.795-12.396 3.71l-323.975-.012c-7.228.049-15.047-3.65-17.878-10.625-3.204-6.602-1.168-14.13-.53-21.07l8.951-90.098c1.915-10.83 1.24-21.937 3.35-32.743L93.167 159.93zM73.47 422.454c4.494 3.012 9.216 6.41 14.938 6.06l325.373-.012c5.782.494 10.504-2.976 14.998-6.06-1.29 7.843-3.88 16.058-10.156 21.36-5.156 4.843-12.552 5.987-19.347 6.18l-296.34-.012c-7.287 0-14.998-1.915-20.334-7.168-5.506-5.337-7.795-13.01-9.132-20.347z"/>
</svg>
