<svg xmlns="http://www.w3.org/2000/svg" width="1000" height="1000">
    <path d="M491.693784996294.677933032603c10.0745-3.16618382308 21.66325.24197745284 28.8 7.925573166406l76.69925 76.7135949562c5.12825 5.062048448428 7.40975 12.321871471106 7.5105 19.400398693204l-.12075 175.388953655946c.38325 4.860275711694-7.14725 11.515279961638-10.88225 6.2314812778-24.2875-23.413378741857-47.78825-47.6535762106-71.73275-71.450273208505-10.17525-11.878121281532-29.436-14.78210043435-41.10575-3.387934058498-26.71025 25.71253912194-52.492 52.433192771348-78.96 78.407686844815-5.2495 5.142707599375-12.53775 7.965777882512-19.8865 7.62316378004-58.5895 0-117.18-.02022721742-175.76825.02022721742-6.804 1.088773678415-8.70175-9.801210574336-3.73525-13.24957656636l266.37825-266.259852775075c6.86425-6.594572316417 12.9615-15.124964255557 22.7935-17.36344298338zm210.02940551616 206.707918299223c-.66625-4.63827575754 4.05825-6.856776986677 6.9855-9.417892318288 9.368 7.300277457518 17.282 16.173533217865 25.7615 24.441970205478l256.36425 256.196687249213c11.225 10.547120431543 11.68975 30.391019595588.545 41.160139981285l-74.56 74.737320898636c-5.7135 5.98950382495-13.44625 10.728665950857-22.0065 10.1438246768-58.5895-.080659150946-117.17875.040204716107-175.76825-.080659150946-5.007.907477877834-6.88475-4.41652552212-9.045-7.744027647092 25.09525-27.043290253196 52.23-52.110556167562 77.66875-78.81098259955 10.0945-10.567347648963 9.00425-28.818291011492-1.41375-38.760342951568l-77.60775-77.863300005607c-5.39025-5.303776182535-7.10675-13.108235763155-7.0055-20.428740438093l.08075-173.573997900277zM491.734273751617 341.614867490018c10.0945-2.924206370238 21.27925.604818772734 28.568 8.02620981604l129.19125 129.046151077914c11.32625 10.748893168278 11.87125 29.967496623434.56525 40.938389745865l-129.09025 129.2074693798c-10.6805 11.938553215058-31.3745 12.301644253686-42.35725.584841274047l-129.1915-129.207719098542c-11.488-10.748643449543-11.54825-30.108587707907-.3635-41.099458329024l123.03375-123.097101687806c5.6935-5.787731088215 11.6695-11.898098780218 19.64425-14.398782178302zM95.740478882893 395.540113679065c60.2045-3.28704769013 120.85325-.362841319894 181.21975-1.391432783515 6.4-1.61343273767 15.06 5.9490493901 8.72175 11.61591661127-24.187 25.551220820047-49.96875 49.609872769478-74.297 75.019752786317-9.83225 10.40602934707-9.6 27.648608463397.424 37.852865073732l78.55675 78.891641750498c5.89525 6.21125406037 7.268 15.124964255557 7.12675 23.37317402575l-.1415 171.476859975662c.54525 6.533890664156-8.9435 9.27655151508-12.72 4.37607108728l-275.58425-275.274199619897c-12.0735-10.607802083804-12.90125-31.23831525863-1.3125-42.491140831273l71.55125-71.692250661345c4.744-4.799843778168 9.812-9.760756139496 16.454-11.75725741448zM608.792022150848 702.53661920328c60.184-2.903979152818 120.75225-.54463655794 181.078-1.169682548095 7.65175-2.137592359456 13.204 8.30864170372 6.84425 13.128462980574l-276.473 276.40342773315c-10.6 11.11173448817-30.0215 11.616166330005-40.86275.584841274048l-75.7505-75.584366842945c-5.57225-5.38443533348-9.54975-12.72516722584-9.3075-20.630513174825l.06075-177.60720516635c-.1-5.7272991547 8.35825-8.32886892114 11.95175-4.053684202226 24.63125 23.736265064377 48.29325 48.500871873642 72.7625 72.39820552118 10.458 11.071529772065 29.557 11.152188923 40.318.46372768826l75.66975-75.6852532113c3.87625-3.730797879706 8.35825-7.078277503365 13.70875-8.24796005146z"/>
</svg>