<svg xmlns="http://www.w3.org/2000/svg" xmlns:v="http://vecta.io" width="500" height="500" viewBox="0 0 501 501">
  <g class="kcg19sbf1to.lay" v:layer_name="TVheadend">
    <path d="M247.378 50.521c4.03-1.268 8.665.097 11.524 3.174 10.28 10.183 20.488 20.44 30.68 30.72 2.05 2.027 2.963 4.934 3.003 7.769-.064 23.411.025 46.831-.048 70.234.153 1.947-2.859 4.612-4.353 2.496-9.715-9.376-19.115-19.083-28.693-28.612-4.07-4.757-11.774-5.92-16.442-1.357-10.684 10.296-20.997 20.997-31.584 31.398-2.1 2.06-5.015 3.19-7.955 3.053-23.436 0-46.871-.008-70.307.008-2.722.436-3.48-3.925-1.494-5.306 35.517-35.533 71.002-71.115 106.551-106.624 2.746-2.64 5.185-6.056 9.118-6.953zM331.39 133.297c-.267-1.857 1.623-2.745 2.793-3.77 3.748 2.922 6.913 6.476 10.305 9.787 34.225 34.152 68.305 68.45 102.546 102.594 4.49 4.224 4.676 12.17.218 16.483-9.869 10.054-19.907 19.93-29.824 29.928-2.285 2.399-5.378 4.296-8.802 4.062-23.436-.032-46.872.016-70.308-.032-2.003.363-2.754-1.769-3.618-3.101 10.038-10.83 20.892-20.868 31.068-31.56 4.038-4.232 3.601-11.54-.566-15.522-10.288-10.45-20.787-20.698-31.043-31.18-2.156-2.124-2.843-5.25-2.802-8.18.048-23.17-.016-46.34.032-69.509zM247.394 187.05c4.038-1.171 8.511.242 11.427 3.214 17.314 17.136 34.394 34.5 51.676 51.676 4.53 4.305 4.749 12 .227 16.394-17.113 17.339-34.451 34.467-51.637 51.741-4.272 4.781-12.55 4.926-16.942.234-17.21-17.265-34.508-34.435-51.677-51.74-4.595-4.305-4.62-12.058-.145-16.46 16.337-16.49 32.844-32.835 49.213-49.293 2.277-2.318 4.668-4.765 7.858-5.766zM88.996 208.644c24.082-1.316 48.341-.145 72.488-.557 2.56-.646 6.024 2.382 3.489 4.651-9.675 10.232-19.988 19.867-29.719 30.042-3.933 4.167-3.844 11.072.17 15.158 10.328 10.66 21.02 20.989 31.422 31.592 2.358 2.488 2.907 6.057 2.851 9.36-.073 22.887.048 45.782-.057 68.668.218 2.617-3.577 3.715-5.087 1.753-36.818-36.672-73.473-73.514-110.234-110.234-4.83-4.248-5.16-12.51-.525-17.016 9.554-9.553 19.14-19.075 28.62-28.709 1.898-1.922 3.925-3.909 6.582-4.708zM294.217 331.58c24.073-1.162 48.3-.217 72.431-.468 3.06-.856 5.282 3.328 2.738 5.258-36.858 36.906-73.74 73.78-110.59 110.686-4.24 4.45-12.008 4.651-16.345.234-10.135-10.054-20.189-20.19-30.3-30.268-2.229-2.156-3.82-5.096-3.723-8.261-.048-23.703-.113-47.413.025-71.123-.04-2.294 3.343-3.336 4.78-1.624 9.853 9.506 19.318 19.423 29.105 28.992 4.183 4.434 11.823 4.466 16.127.186a5944.368 5944.368 0 0030.268-30.308c1.55-1.494 3.344-2.835 5.484-3.303z"/>
  </g>
</svg>
